<svg width="29" height="30" viewBox="0 0 29 30" fill="none" xmlns="http://www.w3.org/2000/svg">
<path d="M24.3694 16.92L23.0789 16.056C23.1443 15.521 23.1606 14.9839 23.126 14.4489L24.466 13.6668C25.0354 13.333 25.2817 12.6394 25.0439 12.0232L24.3611 10.2283C24.2328 9.89102 23.983 9.62407 23.6545 9.47666C23.3968 9.36097 23.1161 9.32987 22.841 9.38623L21.3159 9.69062C20.9733 9.25214 20.5912 8.8459 20.1701 8.48209L20.5568 6.99741C20.7239 6.35814 20.4066 5.69628 19.8038 5.42572L18.0536 4.64017C17.4508 4.3696 16.7454 4.57244 16.3788 5.12214L15.5033 6.42737C14.9724 6.36388 14.4334 6.35173 13.8965 6.39047L13.1228 5.05422C12.9821 4.81126 12.7681 4.62032 12.5104 4.50463C12.1819 4.35722 11.8123 4.34615 11.4792 4.47633L9.68012 5.15726C9.06576 5.39097 8.70714 6.03415 8.83617 6.68144L9.14328 8.2228C8.71871 8.55668 8.33241 8.92772 7.98021 9.33404L6.49553 8.94735C5.85627 8.7803 5.19441 9.09757 4.92385 9.70037L4.13829 11.4506C3.86773 12.0533 4.07057 12.7587 4.62026 13.1253L5.92549 14.0009C5.86201 14.5318 5.84985 15.0708 5.8886 15.6076L4.55836 16.3791C3.98898 16.7129 3.74261 17.4065 3.98047 18.0227L4.66327 19.8176C4.79158 20.1549 5.04137 20.4218 5.36979 20.5692C5.62754 20.6849 5.90826 20.716 6.1833 20.6597L7.72466 20.3526C8.04564 20.7613 8.40607 21.1379 8.79576 21.4826L8.40161 22.9839C8.23456 23.6232 8.55184 24.2851 9.15463 24.5556L10.909 25.343C11.5118 25.6136 12.2172 25.4108 12.5838 24.8611L13.4477 23.5706C13.9827 23.636 14.5198 23.6523 15.0548 23.6177L15.8369 24.9577C15.9776 25.2006 16.1916 25.3916 16.4493 25.5072C16.7777 25.6547 17.1432 25.6639 17.4805 25.5356L19.2754 24.8528C19.8898 24.619 20.2484 23.9759 20.1194 23.3286L19.815 21.8034C20.2395 21.4695 20.6342 21.1022 20.9845 20.7001L22.4858 21.0942C23.1251 21.2613 23.7869 20.944 24.0575 20.3412L24.843 18.591C25.1219 17.992 24.9191 17.2866 24.3694 16.92ZM22.9433 19.8411C22.9191 19.8952 22.8611 19.9241 22.8034 19.9082L20.9267 19.4155C20.6896 19.354 20.4422 19.4378 20.293 19.6255C19.8608 20.1657 19.3565 20.6437 18.7878 21.0427C18.5898 21.1836 18.4917 21.4243 18.5385 21.665L18.916 23.5726C18.9264 23.6272 18.8943 23.6877 18.8401 23.7084L17.0452 24.3912C17.003 24.4072 16.972 24.3983 16.9513 24.389C16.9263 24.3778 16.9093 24.3601 16.8982 24.3402L15.9166 22.6659C15.7957 22.4568 15.5583 22.3402 15.3167 22.3666C14.6265 22.4465 13.9321 22.4245 13.2501 22.3082C13.0097 22.2652 12.7673 22.3712 12.637 22.5724L11.5582 24.186C11.5256 24.2363 11.4631 24.2532 11.409 24.2289L9.65886 23.4434C9.60481 23.4191 9.57588 23.3612 9.59182 23.3034L10.0845 21.4267C10.146 21.1896 10.0622 20.9422 9.87447 20.793C9.34903 20.3724 8.88169 19.8779 8.48349 19.3296C8.41858 19.2405 8.33 19.1708 8.23439 19.1279C8.12214 19.0775 7.99081 19.0585 7.86348 19.0863L5.94384 19.4683C5.91746 19.4715 5.89294 19.4705 5.87215 19.4611C5.85552 19.4537 5.82413 19.4346 5.80809 19.3924L5.12529 17.5975C5.10467 17.5433 5.12664 17.4832 5.17626 17.4506L6.84268 16.4754C7.05366 16.3503 7.1702 16.1129 7.14378 15.8713C7.06209 15.1853 7.07576 14.4872 7.19208 13.8052C7.22904 13.567 7.12721 13.3265 6.92783 13.1921L5.30368 12.1035C5.25337 12.0709 5.23648 12.0084 5.26073 11.9544L6.04629 10.2042C6.07055 10.1501 6.12849 10.1212 6.18626 10.1371L8.05043 10.6242C8.28756 10.6857 8.53909 10.6038 8.69016 10.4119C9.11827 9.86982 9.62019 9.38586 10.1847 8.98494C10.3828 8.84409 10.4767 8.60153 10.4281 8.36493L10.046 6.44529C10.0356 6.39066 10.0677 6.33016 10.1219 6.30954L11.9168 5.62675C11.959 5.61071 11.9899 5.61961 12.0107 5.62894C12.0357 5.64014 12.0527 5.65778 12.0637 5.67772L13.039 7.34413C13.164 7.55511 13.4014 7.67165 13.643 7.64524C14.329 7.56355 15.0271 7.57721 15.7091 7.69353C15.9473 7.73049 16.1878 7.62866 16.3222 7.42928L17.4108 5.80513C17.4434 5.75482 17.5059 5.73793 17.56 5.76218L19.3102 6.54774C19.3642 6.572 19.3931 6.62994 19.3772 6.68771L18.8901 8.55188C18.8286 8.78901 18.9105 9.04054 19.1024 9.19161C19.6593 9.63134 20.1478 10.1453 20.5575 10.7238C20.6983 10.9218 20.939 11.0199 21.1798 10.9731L23.0768 10.5859C23.1031 10.5827 23.1277 10.5837 23.1484 10.5931C23.1651 10.6005 23.1965 10.6196 23.2125 10.6618L23.8953 12.4567C23.9159 12.5109 23.894 12.571 23.8443 12.6036L22.17 13.5853C21.9609 13.7062 21.8444 13.9436 21.8708 14.1852C21.9506 14.8753 21.9286 15.5697 21.8123 16.2517C21.7693 16.4922 21.8753 16.7345 22.0766 16.8648L23.6901 17.9437C23.7404 17.9762 23.7573 18.0388 23.7331 18.0928L22.9475 19.843L22.9433 19.8411V19.8411Z" fill="white" fill-opacity="0.45"/>
<path d="M16.4305 10.7045C14.0609 9.64088 11.2722 10.7017 10.2086 13.0713C9.14506 15.4409 10.2059 18.2297 12.5755 19.2932C14.9451 20.3568 17.7338 19.296 18.7974 16.9264C19.861 14.5568 18.8001 11.768 16.4305 10.7045ZM13.0793 18.1708C11.3291 17.3852 10.5455 15.3253 11.3311 13.5751C12.1166 11.825 14.1766 11.0414 15.9267 11.8269C17.6769 12.6125 18.4605 14.6724 17.675 16.4226C16.8894 18.1727 14.8295 18.9564 13.0793 18.1708Z" fill="white" fill-opacity="0.45"/>
</svg>
